<?xml version="1.0" encoding="utf-8"?>
<svg xmlns="http://www.w3.org/2000/svg" viewBox="386.3686 234.4523 19.9999 20.0001" width="10mm" height="10mm">
    <path d="M 405.473 235.347 C 403.758 233.632 400.026 234.582 398.096 236.512 C 397.056 237.552 396.752 238.664 396.96 239.738 C 397.171 240.818 397.15 242.037 396.348 242.79 L 386.872 251.692 C 386.215 252.309 386.199 253.347 386.836 253.984 C 387.473 254.622 388.512 254.606 389.129 253.949 L 398.03 244.473 C 398.784 243.671 400.003 243.65 401.083 243.86 C 402.156 244.069 403.268 243.765 404.309 242.724 C 406.239 240.794 407.189 237.063 405.473 235.347 L 405.473 235.347 Z" stroke="#ffffff" stroke-linecap="round" stroke-width="0.1mm" id="object-0" transform="matrix(0.9999999999999999, 0, 0, 0.9999999999999999, 5.684341886080802e-14, 2.842170943040401e-14)"/>
</svg>
