<svg id="visual" viewBox="0 0 2560 1440" width="2560" height="1440" xmlns="http://www.w3.org/2000/svg" xmlns:xlink="http://www.w3.org/1999/xlink" version="1.1"><rect x="0" y="0" width="2560" height="1440" fill="#19160d"></rect><defs><linearGradient id="grad1_0" x1="43.8%" y1="0%" x2="100%" y2="100%"><stop offset="14.444444444444446%" stop-color="#ff9900" stop-opacity="1"></stop><stop offset="85.55555555555554%" stop-color="#ff9900" stop-opacity="1"></stop></linearGradient></defs><defs><linearGradient id="grad1_1" x1="43.8%" y1="0%" x2="100%" y2="100%"><stop offset="14.444444444444446%" stop-color="#ff9900" stop-opacity="1"></stop><stop offset="85.55555555555554%" stop-color="#d58702" stop-opacity="1"></stop></linearGradient></defs><defs><linearGradient id="grad1_2" x1="43.8%" y1="0%" x2="100%" y2="100%"><stop offset="14.444444444444446%" stop-color="#ae7507" stop-opacity="1"></stop><stop offset="85.55555555555554%" stop-color="#d58702" stop-opacity="1"></stop></linearGradient></defs><defs><linearGradient id="grad1_3" x1="43.8%" y1="0%" x2="100%" y2="100%"><stop offset="14.444444444444446%" stop-color="#ae7507" stop-opacity="1"></stop><stop offset="85.55555555555554%" stop-color="#8a620c" stop-opacity="1"></stop></linearGradient></defs><defs><linearGradient id="grad1_4" x1="43.8%" y1="0%" x2="100%" y2="100%"><stop offset="14.444444444444446%" stop-color="#694f10" stop-opacity="1"></stop><stop offset="85.55555555555554%" stop-color="#8a620c" stop-opacity="1"></stop></linearGradient></defs><defs><linearGradient id="grad1_5" x1="43.8%" y1="0%" x2="100%" y2="100%"><stop offset="14.444444444444446%" stop-color="#694f10" stop-opacity="1"></stop><stop offset="85.55555555555554%" stop-color="#4b3b11" stop-opacity="1"></stop></linearGradient></defs><defs><linearGradient id="grad1_6" x1="43.8%" y1="0%" x2="100%" y2="100%"><stop offset="14.444444444444446%" stop-color="#302811" stop-opacity="1"></stop><stop offset="85.55555555555554%" stop-color="#4b3b11" stop-opacity="1"></stop></linearGradient></defs><defs><linearGradient id="grad1_7" x1="43.8%" y1="0%" x2="100%" y2="100%"><stop offset="14.444444444444446%" stop-color="#302811" stop-opacity="1"></stop><stop offset="85.55555555555554%" stop-color="#19160d" stop-opacity="1"></stop></linearGradient></defs><defs><linearGradient id="grad2_0" x1="0%" y1="0%" x2="56.3%" y2="100%"><stop offset="14.444444444444446%" stop-color="#ff9900" stop-opacity="1"></stop><stop offset="85.55555555555554%" stop-color="#ff9900" stop-opacity="1"></stop></linearGradient></defs><defs><linearGradient id="grad2_1" x1="0%" y1="0%" x2="56.3%" y2="100%"><stop offset="14.444444444444446%" stop-color="#d58702" stop-opacity="1"></stop><stop offset="85.55555555555554%" stop-color="#ff9900" stop-opacity="1"></stop></linearGradient></defs><defs><linearGradient id="grad2_2" x1="0%" y1="0%" x2="56.3%" y2="100%"><stop offset="14.444444444444446%" stop-color="#d58702" stop-opacity="1"></stop><stop offset="85.55555555555554%" stop-color="#ae7507" stop-opacity="1"></stop></linearGradient></defs><defs><linearGradient id="grad2_3" x1="0%" y1="0%" x2="56.3%" y2="100%"><stop offset="14.444444444444446%" stop-color="#8a620c" stop-opacity="1"></stop><stop offset="85.55555555555554%" stop-color="#ae7507" stop-opacity="1"></stop></linearGradient></defs><defs><linearGradient id="grad2_4" x1="0%" y1="0%" x2="56.3%" y2="100%"><stop offset="14.444444444444446%" stop-color="#8a620c" stop-opacity="1"></stop><stop offset="85.55555555555554%" stop-color="#694f10" stop-opacity="1"></stop></linearGradient></defs><defs><linearGradient id="grad2_5" x1="0%" y1="0%" x2="56.3%" y2="100%"><stop offset="14.444444444444446%" stop-color="#4b3b11" stop-opacity="1"></stop><stop offset="85.55555555555554%" stop-color="#694f10" stop-opacity="1"></stop></linearGradient></defs><defs><linearGradient id="grad2_6" x1="0%" y1="0%" x2="56.3%" y2="100%"><stop offset="14.444444444444446%" stop-color="#4b3b11" stop-opacity="1"></stop><stop offset="85.55555555555554%" stop-color="#302811" stop-opacity="1"></stop></linearGradient></defs><defs><linearGradient id="grad2_7" x1="0%" y1="0%" x2="56.3%" y2="100%"><stop offset="14.444444444444446%" stop-color="#19160d" stop-opacity="1"></stop><stop offset="85.55555555555554%" stop-color="#302811" stop-opacity="1"></stop></linearGradient></defs><g transform="translate(2560, 0)"><path d="M0 1080C-117.7 1074.7 -235.5 1069.4 -333.7 1027.1C-432 984.9 -510.8 905.7 -609.5 839C-708.2 772.2 -826.8 717.8 -854.3 620.7C-881.8 523.6 -818.3 383.7 -840.7 273.2C-863.2 162.6 -971.6 81.3 -1080 0L0 0Z" fill="#241f0f"></path><path d="M0 945C-103 940.4 -206 935.7 -292 898.7C-378 861.8 -447 792.5 -533.3 734.1C-619.7 675.7 -723.5 628.1 -747.5 543.1C-771.6 458.1 -716 335.8 -735.6 239C-755.3 142.3 -850.1 71.1 -945 0L0 0Z" fill="#3d3211"></path><path d="M0 810C-88.3 806 -176.6 802 -250.3 770.4C-324 738.7 -383.1 679.3 -457.1 629.2C-531.2 579.1 -620.1 538.4 -640.7 465.5C-661.4 392.7 -613.7 287.8 -630.6 204.9C-647.4 121.9 -728.7 61 -810 0L0 0Z" fill="#5a4511"></path><path d="M0 675C-73.6 671.7 -147.2 668.4 -208.6 642C-270 615.6 -319.3 566.1 -381 524.3C-442.6 482.6 -516.8 448.6 -534 387.9C-551.1 327.2 -511.4 239.8 -525.5 170.7C-539.5 101.6 -607.2 50.8 -675 0L0 0Z" fill="#79580e"></path><path d="M0 540C-58.9 537.3 -117.7 534.7 -166.9 513.6C-216 492.4 -255.4 452.9 -304.8 419.5C-354.1 386.1 -413.4 358.9 -427.2 310.4C-440.9 261.8 -409.1 191.9 -420.4 136.6C-431.6 81.3 -485.8 40.6 -540 0L0 0Z" fill="#9c6b0a"></path><path d="M0 405C-44.1 403 -88.3 401 -125.2 385.2C-162 369.3 -191.6 339.6 -228.6 314.6C-265.6 289.6 -310.1 269.2 -320.4 232.8C-330.7 196.3 -306.9 143.9 -315.3 102.4C-323.7 61 -364.3 30.5 -405 0L0 0Z" fill="#c17e04"></path><path d="M0 270C-29.4 268.7 -58.9 267.3 -83.4 256.8C-108 246.2 -127.7 226.4 -152.4 209.7C-177.1 193 -206.7 179.5 -213.6 155.2C-220.5 130.9 -204.6 95.9 -210.2 68.3C-215.8 40.6 -242.9 20.3 -270 0L0 0Z" fill="#ea9000"></path><path d="M0 135C-14.7 134.3 -29.4 133.7 -41.7 128.4C-54 123.1 -63.9 113.2 -76.2 104.9C-88.5 96.5 -103.4 89.7 -106.8 77.6C-110.2 65.4 -102.3 48 -105.1 34.1C-107.9 20.3 -121.4 10.2 -135 0L0 0Z" fill="#ff9900"></path></g><g transform="translate(0, 1440)"><path d="M0 -1080C127.8 -1089.9 255.5 -1099.7 333.7 -1027.1C411.9 -954.6 440.5 -799.5 528.4 -727.3C616.3 -655.1 763.5 -665.6 832.5 -604.8C901.5 -544 892.4 -411.8 920.6 -299.1C948.9 -186.4 1014.4 -93.2 1080 0L0 0Z" fill="#241f0f"></path><path d="M0 -945C111.8 -953.6 223.6 -962.3 292 -898.7C360.4 -835.2 385.5 -699.6 462.4 -636.4C539.3 -573.2 668 -582.4 728.4 -529.2C788.8 -476 780.8 -360.4 805.5 -261.7C830.2 -163.1 887.6 -81.6 945 0L0 0Z" fill="#3d3211"></path><path d="M0 -810C95.8 -817.4 191.7 -824.8 250.3 -770.4C308.9 -715.9 330.4 -599.7 396.3 -545.5C462.2 -491.3 572.6 -499.2 624.4 -453.6C676.1 -408 669.3 -308.9 690.5 -224.3C711.6 -139.8 760.8 -69.9 810 0L0 0Z" fill="#5a4511"></path><path d="M0 -675C79.9 -681.2 159.7 -687.3 208.6 -642C257.5 -596.6 275.3 -499.7 330.3 -454.6C385.2 -409.4 477.2 -416 520.3 -378C563.4 -340 557.7 -257.4 575.4 -187C593 -116.5 634 -58.3 675 0L0 0Z" fill="#79580e"></path><path d="M0 -540C63.9 -544.9 127.8 -549.9 166.9 -513.6C206 -477.3 220.3 -399.8 264.2 -363.7C308.2 -327.5 381.7 -332.8 416.2 -302.4C450.8 -272 446.2 -205.9 460.3 -149.6C474.4 -93.2 507.2 -46.6 540 0L0 0Z" fill="#9c6b0a"></path><path d="M0 -405C47.9 -408.7 95.8 -412.4 125.2 -385.2C154.5 -358 165.2 -299.8 198.2 -272.7C231.1 -245.7 286.3 -249.6 312.2 -226.8C338.1 -204 334.6 -154.4 345.2 -112.2C355.8 -69.9 380.4 -35 405 0L0 0Z" fill="#c17e04"></path><path d="M0 -270C31.9 -272.5 63.9 -274.9 83.4 -256.8C103 -238.6 110.1 -199.9 132.1 -181.8C154.1 -163.8 190.9 -166.4 208.1 -151.2C225.4 -136 223.1 -103 230.2 -74.8C237.2 -46.6 253.6 -23.3 270 0L0 0Z" fill="#ea9000"></path><path d="M0 -135C16 -136.2 31.9 -137.5 41.7 -128.4C51.5 -119.3 55.1 -99.9 66.1 -90.9C77 -81.9 95.4 -83.2 104.1 -75.6C112.7 -68 111.5 -51.5 115.1 -37.4C118.6 -23.3 126.8 -11.7 135 0L0 0Z" fill="#ff9900"></path></g></svg>