<?xml version="1.0" encoding="UTF-8"?>
<svg xmlns="http://www.w3.org/2000/svg" viewBox="0 0 1000 1000">
    <path d="M0 0h1000v1000H0z" fill="#e6e5e6"/>
    <style><![CDATA[.B{fill:#7a675a}.C{fill:#5d4841}.D{fill:#9b8375}.E{fill:#a48c7a}.F{fill:#937f6e}.G{fill:#9a8274}.H{fill:#a69389}.I{fill:#bea18c}.J{fill:#a38b79}.K{fill:#000000}.L{fill:#a7948a}.M{fill:#9c8475}.N{fill:#9d8576}]]></style>
    <path d="m497 489 10 1 3 2-1 3h-2l-2 5-5 4-4 1v2l-13 5-8-1v-2h3l-1-3-5-2v3l-4-1v2h-2v-8l5-3 6-2 10 1 8 3z" fill="#010000"/>
    <path class="H" d="M249 302l9 5 8 5 23 14 11 7 21 9 12 8 11 5 12 6 11 4 6 1 3-2h39l5-1 29 1 18 4 12 1 13-1 12-3 8-1h31l13 5 15 6 11 2 12 1h27l20-7 22-10 30-11 21-9 16-8 15-8h6v7l-5 13-10 19-6 11-8 16-4 5-9 20-4 5-5 13-4 6-7 8-5 18-8 14-2 5v21l3 13 1 15 2 10v41l2 11 3 10v19l-4 26-4 11-2 3v9l4 2 7 6-2 2-73 2H510l-38-2-19-2h-20l-22 2-46 1-16 1h-16l-35-1-3-4-7-22-8-20 1-23 1-3v-18l-2-21v-15l1-25 3-26 5-16 3-7 3-16 6-17 5-14v-16l-5-10-8-13-4-10-7-11-13-26-11-20-4-11-5-11-1-7z"/>
    <path d="m252 315 6 1 8 4 7 4 1 2 3 1 5 8 3 1v2l4 2 6 4 7 3 7 6v3l3 1v-2h2v2h4l3 5 3 4v2l3-1 2 5 2 1v2h2l1 5h2l1 7-2 2-5 2 3 17-2 7-2 6h-3v5l-3 3-2 4-1 5 1 5h-2l-1 7-3 1-1 5-2 5h-2l2 5v3l5-1 4 1 3 1 1 1 2-1 17 2 5 3h6l2 2 5 1v2l5 1 3 4 1 4 1 5v7l1 4h-2l-1 3-11 3-20-7-9-7-4-6v-2l-6-2 2-1-1-2h-7l-1-1-5-2-4 7h-2l-2 4-2 5 1 12 1 4h-2l2 4-1 2 2 1-1 2h2l7 13 2 1v2h2v3l4-1 3 1v2l6 1v2l5 2 2 2 5 2v3l4 2 8 16 2 3 3 2 2 1 5-2-1-9-9-8-3-7-2-3h2l-1-7h2l1-4 2-1-1 3 2 1v-2l5-4h4v-3l10-2 5 1 2 2 6 2 7 1 12 4v2l4 2 1 2 7 4 2 5-1 3-9 7-6 2-6 4 1 4 3 5v2l8 1 7 3 6 4v2l4-1 11 2v3l14 2 2 1h11l10-1 7-1 4 1 2-5 2-4h-2l-1-6 3-2h6l1-2v2h3l1-7-2-1v-3l5-3 4-1h13l6-2 2-1v-4l6-2 7-1 17 2 2-1v2h2l1 2 3 2 2 6v4h-2l-1-1v2l-8 1-1 3-5 5-2 4-2 1 5 5 1 6h-2l-3 12-1 2 6 1v2l11 3-1 3 3 1 3 2v5l4-1-2 7h-4l-2-5-5 1-13 2-6-1-1 2-3-1-9 3h-5l-3 3-5 2-1 5-1 1 2 1-1 4 6 1v3h9l4 2 8 1-1 3 3 3-2 3h-6l-4-1-18-2v2l-3 1-2 2-2-1-1 2-9 2-2 5 1 2-4 1 19 1v1h-23l-34-3h-20l-22 2-46 1-16 1h-16l-35-1-3-4-7-22-8-20 1-23 1-3v-18l-2-21v-15l1-25 3-26 5-16 3-7 3-16 6-17 5-14v-16l-5-10-8-13-4-10-7-11-13-26-11-20-4-11z" fill="#94786e"/>
    <path d="m304 338 13 2 16 10 11 5 12 6 11 4 6 1 3-2h39l5-1 29 1 18 4 12 1 13-1 12-3 8-1h31l13 5 15 6 11 2 12 1h27l20-7 22-10 9-1 13-1v3l-1 3h-4v2h-3v2l-3 1-2 2v-2h-2v2l-7 2-1 3-7 2-3 3-7 3h-2v2l-3 2h-4v3l-7 1-1 3-6 4-5 4-3 4-7 1h-3l-4 1-7 4h-3l-4 1-4 5v3l2 2v2l4 3v2l3 1h-2l1 3v4h-3l1 2-6 1v4h-2l1 10-3 3 2 5h2l5 5v2h2v5l5 1 8 4 13 1 4-1 2 1 9-1 2-1 5 3 6 7 3 2h10l3-4 8-1 2 7-1 2 4 2v9l1 3-2 2v13l-2 4 1 8 1 5-2 1 2 2-3 1v3h-2v3l-2 1-1 3h-2v6h-2v-2l-3 1v-2h2v-3l-6 1h-2l-1-4 3 1v-2h-7l1 3-1 2-5-1-5-4v-5h-2l-1-2-10-4-3-3h-11l-5-1-14-3-6-4-8-2-2-1v2l-6 3h-5l-9-3-3-2-2-1-4 3h-6v-8l3-1-1-3 1-5-1-5v-3l-3 1-2-4-3-3v-2l4-2 3-1-1-6-10-5-15-3-3-4-9-2-5 1-1-5 1-3-6-1v-2l-4-1-5-4-3-3-4 1-7-4-7-2v-2h-3l1-4 1-2-5 2h-7l1 3h-6v-2l-8-1v-2h-2l-1 2v-4h-2l1 5-1 2h-2l-4-5-9 3-9-4-2-3-3-1-3-3-9-1-3-3-1-7-2-9 1-5v-11l-5 1-3-5v-2l-12-1-1 2h-3v-2l-2-1-1-3-2-1v-5l-4-2-5-5-2-5-8-4-7-2-7-8v-2l-4-2-5-5-3-2v-2h-4z" fill="#c1b6b5"/>
    <path class="I" d="m249 302 9 5 8 5 23 14 11 7 11 5v1h-6v4h4v2l4 2 1 3 4 2 10 10v2l8 1 8 5 3 6h2l3 5 3 1-1 5 3 1 3 5 8-2 7 2 3 5v2l3-1 2-2 1 2v11l-1 5 1 7 1 2v5l3 4 9 1 3 2v2l4 1 2 3 8 3 10-3v3l3 1v2h2v-7h2l1 2 7 2 3 1v2l5-1v-2l12-2-2 6 5 1 9 4 5 2 2-1 8 7 4 2v2l6 1v8l6-2 9 3 2 3 15 3 5 3 6 2 1 5-7 7 3 3 2 3h2l1 7 1 3-1 6-2 1-1 8 7-1-1-2h4l1-2v2l2 1 7 3-1 2-11 1v2l-4 1-2 2-2-1-1 3-8 4-6 7h-3v3l-11 2-3 1-2 3-9 2-11 2h-4v2l-9 3-8 3-1 3-2 2-1 3-8 2h-10l-9 1-3 3-8-1-6 1-14-4-4-6-1-3 2-4 10-5 5-3h2l1-3h2v-5l-5-5-4-2-5-5-6-3-10-1-3-2-6-2-3-2-13 1v3l-5 2-4 2v2l-3-1-2 3v6l3 8 10 10 1 9-7 3-6-5-8-16-4-4-1-3-5-2-6-4v-2l-6-1v-2l-3 1-4-1v-3h-2v-2l-3-1-6-11v-2h-2l-2-9h2v-3l-2-1-1-13h2l1-5 2-3h2l2-6 3-2 3 2h3l-1 2 7-1 3 6h2l5 8 8 6 21 7 10-3 2-3-1-7v-7l-2-4-1-3-6-3v-2h-7v-2h-7l-5-3-17-2h-3l-4-2-2 1v-2l-5 1-2-5v-3h2l3-10 2-1 1-5 1-2h2l-2-6 1-5h2l1-4 2-2 1-5h3l1-4-1-2h2v-6l1-2-3-16 4-3 3-1-1-5 1-2h-2l-1-5h-2v-2l-4-2v-3h-3l-6-8v-3h-4v-2h-2v2l-4-1-1-4-8-6-5-2-9-6v-2l-4-1-3-3-1-5-4-1v-2l-6-2-6-4-10-3-3-8z"/>
    <path class="B" d="m390 546h8l7 4 6 7-3 5-9 4-12 2v11l3 4 2 8 7 2 4 3v2l5 1 1 2 12 3 5 2 8 1 3 1 8 1 11 1 1 3 3-1 1-2 9 1 7 2 7 1 2-6 2-1v-2l-3 1v-2l7-2 5-1 2 1v-2l8-1 1 3 5 2v2l3 1v2l9 6 13 6 1 2h2v3l-5 2h-4l-1 3-6 1-7 2-2 1-5-1-2 2-2-1v2h-3l1 4-3 3-1 13 4 8-2 4h-5l-8 7h-2l-1 4-4 2 2 2h-13l-19-2h-20l-22 2h-78l-8-1-1-3h3v-2h4l2-10-1-4 1-7 3-11v-5l-2-7-1-6-2-1v-3l-5-2-3-2v-2l-7-1v-2l-5-2-6-1-2 4-9 3-4-2 1-6h2l-1-3v-2l1-3h2l1-4-2-1-1-8 2-6 7 1 2-1v-4l-2-1 1-3-2-1 2-5v-3h2v-2l-3 1-4-2v-2l2-1 2-5h7l7 3 3 2 2 6-1 10 7 6 5 3 7 3 1 3 7 1 4 1 6-1 1-2 4-1 2-3 8-1v-7l-8-13-6-7-1-3v-7l2-2 8 1 1 5 4 4 7-1 8-5 1-3h2z"/>
    <path class="J" d="m535 541 3 1-1 4 1-1 1 2 7-2 1-2 5 1v2h5l6 6v2h2v3l6 2 2 3 3 1v3h2v2h2v4l-1 1h2v-2l5-1 2 1 1-2 2 2 5-1 6 1 1-2 2 1-1-6-8 1-1-4-2-1h2l1-3 5 1 2-1v-3l3 1 7 1 8-3 5 1v3h3l1 4 4 2-4 2-4 1 2 4-4 4-3-5-1-2-8-1-2 1 1 5v2l5 1-2 5-5 3-11 2-2 5h-6v-2l-3-1-4 2-2 4 6-1 3 1 5 5v7l4 3v7l-3 3h-2v2h2v2h-2v2l3-1v4h2l4 4 2 1v2h3l2 4-4 2v2l7 1h8l4 1 6-2 14 4-3 5-4 4-1 4 2 3v3l4-1 1 1h8l2-4 4-1h2l1-3 3 1 2-4 3-9h2l1-6-3-3 1-3v2h2l-3-3v-2l5-2 1-8 1-4v-10l1-1v-7l-1-5-1-9-2-1 1-3h-2v-8l3-9 3-3 2 1v24l2 11 3 10v19l-4 26-4 11-2 3v9l4 2 7 6-2 2-73 2h-101v-2h-22l3-2 3-1v-3l2-4 9-2 5-3h3v-2h12l8 1 6 1 2 1 1-4-4-4-5-2-1 2v-2l-8-2-1 2-4-4-5-2 1-4-3-1 3-6 5-3h2l1-3h6l9-3h12l10-2 6-1 2 6 3-1 1-5h-3v-5l-4-1-2-4-10-4v-2h-7l3-10 3-6-1-5-5-6 4-4v-2l7-7h8v-2l-2-1h2l1-2v4h2l-3-10-3-2v-2h-4l-17-2-12 2v4l-1 2-4 1-10 1h-7l-5 2-4 1 2 6-1 5-10 1-3 1 2 1-1 5h2l-2 5-2 4h-9l-2 1-15 1h-7l-1-1-14-3-2-2-9-2h-4l-1-2-5-3v-3h9l5 1 3-3 9-1h9l8-1 1-6h2v-3l8-2 2-2 8-1v-2l8-2 10-1 6-2 2-3 10-2 2-2v2h2v-3h3l2-4 5-5z"/>
    <path d="m678 359h7v3l-1 3h-4v2h-3v2l-3 1-2 2v-2h-2v2l-7 2-1 3-7 2-3 3-7 3h-2v2l-3 2h-4v3l-7 1-1 3-6 4-5 4-3 4-7 1h-3l-4 1-7 4h-3l-4 1-4 5v3l2 2v2l4 3v2l3 1h-2l1 3v4h-3l1 2-6 1v4h-2l1 10-3 3 2 5h2l5 5v2h2v5l5 1 8 4 13 1 4-1 2 1 9-1 2-1 5 3 6 7 3 2h10l3-4 8-1 2 7-1 2 4 2v9l1 3-2 2v13l-2 4 1 8 1 5-2 1 2 2-3 1v3h-2v3l-2 1-1 3h-2v6h-2v-2l-3 1v-2h2v-3l-6 1h-2l-1-4 3 1v-2h-7l1 3-1 2-5-1-5-4v-5h-2l-1-2-10-4-3-3h-11l-5-1-14-3-6-4-8-2-2-1v2l-6 3h-5l-9-3-3-2-2-1-4 3h-6v-8l3-1-1-3 1-5-1-5v-3l-3 1-2-4-3-3v-2l4-2 3-1-1-6-10-5-15-3-3-4-9-2-5 1-1-5 1-3-6-1v-2l-4-1-5-4-3-3-4 1-7-4-7-2v-2h-3l1-4 3-6 3-1 4-8 2-1 2-3 6-3 5 2v8l4 3-2 1 1 7h1l3 11 3 1 1-1h7l4 4h10l2 3 8 3-1 4-4 1-3-2 1 3 5 1 4 1v2h2v3l7 2 4 2 1 2 10 3 6-1 8 2 4 2 1-2-3-1 1-8-4-6-2-2-3 1-1-6h2l-2-6h-2v-3l-6-1-6-3 1-5h2l1-7 4-4v-5l-2-1-1 5-2-1-1-2-2-1v-4l11-2 2 2 4-4 6-3v-2h2v-2h5l2-3-1-2 4-2 1-3-3-3h6v-2h16l6-5h3v-5l3-3-1-3-6-1v-1l5-1v-2l-8-1v-1l20-1 20-7 22-10 9-1z" fill="#baa8a2"/>
    <path d="m734 343h3l2 5-2 7-3 5h-3l-2 6h-3l1 3-3 1v5l-2 4h-2l-2 4-4 1-2-2-2 3h3v3l3 1-1 7-4 9-3 2-5-6v-3l-2 2-1 5h-2l1 3-5 1h-2l-4 7-3 1-2-1 5 10 1 8 1 2h3l-1 5-3 1v3h-2v2l-3 1v-2l-4-1 1 4h-2v7l-3 2h-2l-2 4 1 2-2 5-2-2-3 1-1 9-2 5-5 1-1 4h-2l-1 4-5 1-1-4-4-2-3-3-4-8-2-1v-2l-4-1-3-7v-4h-3l-1-4 4-5-2-4-2-1-1-3-4 2-2-8 3-1-4-1-5-3-8-4h2l-1-3h2l1-8 1-3 3-1 1-5 5-5 1-2 7-4 3-1 1-4h7v-3l7-2v-2l9-3 1-2 5-3h4l1-4 7-1v-2h2v2l9-1 1-3 5-2 5-1 1-3 4-1 1-3 5-1v-2l7-3h6v-2l3-1 1-2 6-2z" fill="#94796f"/>
    <path class="H" d="m745 325h6v7l-5 13-10 19-6 11-8 16-4 5-9 20-4 5-5 13-4 6-7 8-5 18-8 14-2 5-1 19h-1l-2-6-2-1-1-9-8 2-3 4h-10l-9-8v-2l-6-2-2 1-9 1-3-1-4 1-11-1-9-5-4-1v-5h-2l-9-9-1-3 3-5v-8h2v-4h2l1-3v2l2-1-1-2h3l-1-3v-4l-5-5-2-4 1-4 4-5 6-2h3l4-2 2-2 6-1v2l5-1 1 2-2 4h-3l-2 11-1 3 6 4 1-2v3l5 2 3 1-1 2v7l4-3 1 4 3 1v3l2 1-4 5v4h3l4 11 3 1v2l4 2 2 4v3l3 1 4 4 2 3 4-1 1-3h2l1-4 5-1 1-5 2-9h2l1-3 1 2 2-3-1-4h2l1-3 4-1 1-7h2l-1-4 7 2v-2h2v-3l3-2-1-2-3-2v-7l-4-10-1-3 5-1 4-8 5 1 1-3h2v-6l3-1 1-2 1 4v2l4 4 3-5 3-7v-5l-3-3-3-1 4-4 2 2 4-2 1-2h2l1-9 3-2v-2h3l1-6 5-2 2-4 1-8-1-3-11 3-6 1-1 3h-3v2l-7 1-3 2h-3v2l-5 2-3 3h-2l-1 4-5 1-5 2-1 2-8 1 1-3h3v-2h3v-2h4l1-5h-7l-6 1-3-2 24-9 21-9 16-8z"/>
    <path d="m539 557 14 1 5 1 2-1v2h2l1 2 3 2 2 6v4h-2l-1-1v2l-8 1-1 3-5 5-2 4-2 1 5 5 1 6h-2l-3 12-1 2 6 1v2l11 3-1 3 3 1 3 2v5l4-1-2 7h-4l-2-5-5 1-13 2-6-1-1 2-3-1-9 3h-5l-3 3-5 2-1 5-1 1 2 1-1 4 6 1v3h9l4 2 8 1-1 3 3 3-2 3h-6l-4-1-18-2v2l-3 1-2 2-2-1-1 2-9 2-2 5 1 2-4 1 19 1v1h-23l-10-2v-1l10-2 1-4 7-6 4-2 5-1-2-7-2-5 1-11 2-3h2l-1-4h3v-2l5-2 5 1 2-2 10-1 6-5 1 2 5-2v-3l-3 1-4-4-14-7-6-4 1-2-2-1v-2l-5-2-1-2h-8v2l-7 1-2 1-6-1-3 2-5 1-4-2h-5l-2 3-5 1-3-1v-2h2v-2l-4 2-7 1-2-1-1 3h-4l-1-3 2-1 2-3 2-1h18l10-1 7-1 4 1 2-5 2-4h-2l-1-6 3-2h6l1-2v2h3l1-7-2-1v-3l5-3 4-1h13l6-2 2-1v-4l6-2z" fill="#927e6e"/>
    <path d="m280 559h1l1 7 2-1h1l4-1-2 4 4-1-1-3 1-2h2l1 6-1 2 4-2-1-4 2-2v2l7 1v2h-2l1 5-2 3 3 9-3 2-6-1-2 5v8l3 1-2 4-2 2v6h-2l-1 6 3-1 1 2 9-3 2-3h6l6 4 4 1 4 3 6 4v3l3 1 2 12 1 1-1 8-3 11v7l1 3-3 8h-4v2l-2 1v2h41l-1 2-16 1h-16l-35-1-3-4-7-22-8-20 1-23 1-3v-18l-2-21z" fill="#927e6d"/>
    <path d="m672 504 2 2 3 13 1 15 2 10v17l-2 4-1-4-3 7-2 12h2l1 4 2 9 1 5v7l-1 5v11l-1 3-2 5-5 1 3 3v2l-2 1v2l3 1-2 6h-2l-2 9-3 4-3 1-3 3-4-1-1 5h-9l-5-1-1-5-2-1 3-7 5-5 1-19h-6l-5 1 1-4 2-2-2-3v-3l-3-1v-1h-1v-9l2-8v-3h3l-1-3 3-10 9-3 1-4-3-6 1-4-1-4h-2l2-6v-2l5-1 2 1v2l-2 1v2l6-1h2v3l1 1v2h2l-1-8 1 2h2l1-4h2v-3l2-1v-6h3l-2-7-1-8 2-5v-11l2-1-1-4z" fill="#969399"/>
    <path d="m678 359h7v3l-1 3h-4v2h-3v2l-3 1-2 2v-2h-2v2l-7 2-1 3-7 2-3 3-7 3h-2v2l-3 2h-4v3l-7 1-1 3-6 4-5 4-3 4-7 1h-3l-4 1-7 4h-3l-4 1-4 5v3l2 2v2l4 3v2l3 1h-2l1 3v4h-3l1 2-6 1v4h-2l1 10-3 3 2 5h2l5 5v2h2v5l5 1 8 4 13 1 4-1 2 1 9-1 2-1 5 3 6 7 3 2h11v2h-2v2l-4 1-5-1-4-2v-2l-7-2-4-2-2 6-6 1-2-4 3-1v-3l-14 1-5-2-5-1-1 2-6 1-6-2-7-3h-6v4l-4 1-3-2 1-8-4-6-2-2-3 1-1-6h2l-2-6h-2v-3l-6-1-6-3 1-5h2l1-7 4-4v-5l-2-1-1 5-2-1-1-2-2-1v-4l11-2 2 2 4-4 6-3v-2h2v-2h5l2-3-1-2 4-2 1-3-3-3h6v-2h16l6-5h3v-5l3-3-1-3-6-1v-1l5-1v-2l-8-1v-1l20-1 20-7 22-10 9-1z" fill="#b9a7a0"/>
    <path d="m572 483h8l9 4h4v2h3l1-3v2h2l1-3 3 1 2-1 1 2 9 1h9v3l-2 1 1 3h6l1-7h4l1 2 7 3v2h5l8 2v-2h2l1-5 4-2h5l2 7-1 9 1 6-2 4v3h-3l-2 4-1 3 2 1-3 4h-2v3l-6 5-4-1-5 2h-3v2l-5 1-2-1v-2l-10-1-3-3h-7l-1 2-3-2-1-5-2-1v-3l-2-1v-2l-3-2v-2l-6-3v-3h-2v2h-4l1 3-6-2 2-1-1-5-5-2-2 3-2-1-1 2h-3v2l-5-1-1-5v-3l-2-2-1-3 2-3-1-3 4-1 2 1 2-5 2-4z" fill="#c1b6b5"/>
    <path class="J" d="m326 367 3 3v2l2 1v2h2l1 5h2l1 7-2 2-5 2 3 17-2 7-2 6h-3v5l-3 3-2 4-1 5 1 5h-2l-1 7-3 1-1 5-2 5h-2l2 5v3l5-1 4 1 3 1 1 1 2-1 17 2 5 3h6l2 2 5 1v2l5 1 3 4 1 4 1 5v7l1 4h-2l-1 3-11 3-20-7-9-7-4-6v-2l-6-2 2-1-1-2h-7l-1-1-5-2-4 7h-2l-2 4-2 5 1 12 1 4h-2l2 4-1 2 2 1-1 2h2l7 13 2 1v2h2v3l4-1 3 1v2l6 1v2l5 2 2 2 5 2v3l4 2 8 16 2 3 3 2 5 1-2 2-8 1-1 2-5-2v-3l-4-1-5-6-2-2v-2l-4-1-1-2-3-1v-2h-2l1-4h-3v-2h-2l-1-2-3-1v-2l-3 1-9-6-1-6-2-1-4-4h-2l-1-2-5-3 1-17 1-4h2v-11l4-9 1-5 2-1 1-4 2-10 3-5h2l1-7 2-9 1-1v-5l3-1 1-9 2-3 2-6 3-2 1-4 2-1 1-5-3-7-2-7 2-9 4-6h2v-4h-2l-1-7-3-1z"/>
    <path class="C" d="m381 598 10 3 18 6 1 2 7 2 8 3 12 2 2 2 8 3 5 3 6 2 10 1 4-3-1-3 3-1h18l5 1-1-4 9-1v2h2v2h-2l1 4-3 2h-6l-4-2-1 8-3-1v2l-4 4-6 2h-22l-15 1-5-1h-8l-7-2-4-4v-2h-4l-1-3-14-1-3-2-11 1h-10l1 4-3 1-2 4-17 3-3 1-2-1v-2h-2l-1-4h-2l-2-5-1-4h-2l-1-6h-3l-2-5v-6l5-1 7 3v-2l4-2 4-3 4-1 4 1h10l5-2 5 1z"/>
    <path d="m677 560 3 1v24l2 11 3 10v19l-4 26-4 11-2 3v9l4 2 7 6-2 2h-31l-2-1h-22l-20 1h-20l-4-11 2-11-2-2 6-6 6 1 2-3 7-2 11 1h2l2-3 4-4 6-2 14 4-3 5-4 4-1 4 2 3v3l4-1 1 1h8l2-4 4-1h2l1-3 3 1 2-4 3-9h2l1-6-3-3 1-3v2h2l-3-3v-2l5-2 1-8 1-4v-10l1-1v-7l-1-5-1-9-2-1 1-3h-2v-8l3-9z" fill="#868183"/>
    <path d="m370 531h6l4 3 6 2 7 1 12 4v2l4 2 1 2 7 4 2 5-1 3-9 7-6 2-6 4 1 4 3 5v2l8 1 7 3 6 4v2l4-1 11 2v3l14 2v1l-5 1-5 5v2l4-1 1-2 4 1 1-2h5l3-1v2h-2v2h8l2-4h7l2 2 7-2 4-1 1 2h-3l3 1-2 8-5 2-10-2-4-1-6-1-1 3-3-1-1-2-14-1-7-1-6-2-6-1-15-5v-2l-5-1-4-4-7-2h-1l-1-8-2-1-2-4v-9l3-3 13-3 7-4 1-3-5-6-7-4-8-1v2h-2l-1 5-5 2-7 3-5-1-4-5 1-4h-8l-1 1v7l3 5 6 8 6 10-1 7-8 1-2 4-8 3-5 1-9-3-2-4 1-2h2v2l9 2v2h5v-2l-9-3-3-3-4-2v-3l-5-2-2-2v-3h-2v-5l5 1v3l6 7 3 1 1 3 4 1 9-3h2v-2l2-1-1-9-9-8-3-7-2-3h2l-1-7h2l1-4 2-1-1 3 2 1v-2l5-4h4v-3z" fill="#95796f"/>
    <path class="E" d="m482 476 2 2v3l4-1h7l7 1 5 1 11 3 11 2 2 4h2v4h-2v2l-3 2-9 3-6 4-12 6-15 6-15 2-9-2h-6l-4-2v2l-9-1-5-5 2-6 4-6 6-4h2v-2l6-5 11-5 4-1 2-4z"/>
    <path d="m390 404h3v3l6 2 5 2 7 5 4 2 6-1 7-3 4-2 5 1 3 2v6l6 2 2 1v-2h4l4-1 5-2 6-1 4 2 2 4-1 3-2 3h-2l-1 4-3 5-3 1-4 4-3 1h-7l1 3h-6v-2l-8-1v-2h-2l-1 2v-4h-2l1 5-1 2h-2l-4-5-9 3-9-4-2-3-3-1-3-3-9-1-3-3-1-7-2-9 1-5 1-3h5z" fill="#cfbcad"/>
    <path d="m393 624 4 1 2 1 14 1 1 4h4l4 5 7 2h10l3 1v2h-8l2 2h3l2 1-4 3-7 1 6 3 1 4h-3l-4 1-2 4v3l1 2h-5v-2l-3 1v-3h-13l-4-1 1 6-7 1-3 3-5-1-5-3h-7l-2-2 2-3h3v-2h4l1-3-10-1-2-1-1 2-3-1-2-4 1-4 2-4h-8l-3 3-1-3 2-3 7 1v-3h-6l-2-2 11-2 4-4v-4z" fill="#8b6c5e"/>
    <path d="m745 325h6v7l-5 13-10 19-6 11-8 16-4 5-9 20-4 5-5 13-4 6-7 8-5 18-4 7h-3l-2 1-1-5v-1h-3l1-4-1-4h2l1-3 4-1 1-7h2l-1-4 7 2v-2h2v-3l3-2-1-2-3-2v-7l-4-10-1-3 5-1 4-8 5 1 1-3h2v-6l3-1 1-2 1 4v2l4 4 3-5 3-7v-5l-3-3-3-1 4-4 2 2 4-2 1-2h2l1-9 3-2v-2h3l1-6 5-2 2-4 1-8-1-3-11 3-6 1-1 3h-3v2l-7 1-3 2h-3v2l-5 2-3 3h-2l-1 4-5 1-5 2-1 2-8 1 1-3h3v-2h3v-2h4l1-5h-7l-6 1-3-2 24-9 21-9 16-8z" fill="#878184"/>
    <path d="m390 546h8l7 4 6 7-3 5-9 4-12 2v11l3 4 2 8 7 2 4 3v2l5 1 3 4h-5l4 3-4 1-9-3-11-3-4-2-4 2h-3l-6 1h-10l-5-1-3-3h3v-2h-8v-2l-2-1 7 1 6-1 1-2 4-1 2-3 8-1v-7l-8-13-6-7-1-3v-7l2-2 8 1 1 5 4 4 7-1 8-5 1-3h2z" fill="#8e6458"/>
    <path d="m316 424 2 1-1 5-3 11-2 1v6h-2l-1 9-2 7h-2l-2 5-2 10-2 5h-2v5l-4 9-1 11h-2l-1 21 10 6 3 4v3l3 1h-2v2l5 2 5 3h2v2l4 1v2h2v2h3l-1 4h2v2l4 1 2 5-1 2h2l2 4 5 3 1 3 5 3 3 2 2-1 1 2 3 1 1 3h-5v-2h-5l-4-2-1-1-4 1-7-3-8-6-2-4 1-10-3-5-7-2-1-1-7-1-1 6h-4l-1 5 2 1-5 2-1-6 1-2h-2v5l-4 1v-3l-3 4-1-3-2 2v-34l3-26 5-16 3-7 3-16 5-12 5-1v-2l3-3 2-11 4-10z" fill="#927e6e"/>
    <path d="m288 328 5 1 16 8 2 2h-6v4h4v2l4 2 1 3 4 2 10 10v2l8 1 8 5 3 6h2l3 5 3 1-1 5 3 1 3 5 8-2 7 2 3 5v2l3-1 2-2 1 2v11l-1 5 1 7 1 2-1 9-4 1-3-2 1-3-5-1-2-5h-3l1 3h-2l-2-3h-5l1-4-4-1v-6h-3l-1 2h-2l-7-8-1-5 1-3-2-1 1-8 1-5 1-6-3-4-1-3-15-6-9-11-7-6-11-6-10-6v-2h-2z" fill="#baa7a1"/>
    <path class="K" d="m384 604h7l12 5 8 4 10 3v2l6 1v2l4 1 1 2h3v2l5 1 9 5v1l-8 1h-7l-8 1-10-10v-3h-45l-7 6h-5l-4-5h-2v-2h-2l1-11h2l1-3 3-2h20z"/>
    <path d="m609 408 4 1-2 5h-3l-2 11-1 3 6 4 1-2v3l5 2 3 1-1 2v7l4-3 1 4 3 1v3l2 1-4 5v4h3l4 11 3 1v2l4 2 1 3-3 1-1-2-8-2v-2h-2v2h-5l-3-3-1-2-4-1-2-5-5-1-2 2h-2v-2l-3-1-2-6-4-1h2v-5h2l1-5 1 3 4-1v-2l6-4-5-3v-2l-5-2-1-4-3-1-3-11 5-2 1-2 6-2 2-4z" fill="#a38c7a"/>
    <path d="m495 487h10l12 3 3 2-1 3-7 5h-2v2l-9 6-15 6h-21l-9-2-6-4 2-6 11-7 12-4 5-1 2 5 10 1 2 1-3-9z"/>
    <path d="m641 581 7 1 5 3h5l1 1v6l5-1-2 4 3 3-1 3-1-2-2 3 3 1-1 6h-2l2 5-2 2-1 4h-3l-1 2h-3l-4 1h-3l-2 4-7 2h-3l1-4 2-2-2-3v-3l-3-1v-1h-1v-9l2-8v-3h3l-1-3 3-10z" fill="#a69fa3"/>
    <path class="F" d="m605 650 12 1h4l1 4 2 2-3 6v6l-2 4 1 9-11 2h-20l-4-11 2-11-2-2 6-6 6 1 2-3z"/>
    <path d="m249 302 9 5 8 5 23 14v3l-2 5h2l3 3 14 8 6 4 9 8 6 8 9 3 5 3 4 5 1 4-1 8-1 4-5 4h-2l-1 6-5 1-2-12 4-3 3-1-1-5 1-2h-2l-1-5h-2v-2l-4-2v-3h-3l-6-8v-3h-4v-2h-2v2l-4-1-1-4-8-6-5-2-9-6v-2l-4-1-3-3-1-5-4-1v-2l-6-2-6-4-10-3-3-8z" fill="#a79489"/>
    <path d="m280 559h1l1 7 2-1h1l4-1-2 4 4-1-1-3 1-2h2l1 6-1 2 4-2-1-4 2-2v2l7 1v2h-2l1 5-2 3 3 9-3 2-6-1-2 5v8l3 1-2 4-2 2v6h-2v4h-3l-1 13-3 9h-2l-2 2 1-23 1-3v-18l-2-21z" fill="#86746d"/>
    <path d="m668 497 4 2v9l1 3-2 2v13l-2 4 1 8 1 5-2 1 2 2-3 1v3h-2v3l-2 1-1 3h-2v6h-2v-2l-3 1v-2h2v-3l-6 1h-2l-1-4 3 1v-2h-7l1 3-1 2-5-1-5-4v-5h2l2-4 1-6 8-3 5 1 3-4h2l1-5 3-2-1-4 2-4 2-2v2l2-2v-3l1-4-1-6z" fill="#a69fa4"/>
    <path class="G" d="m539 557 14 1 5 1 2-1v2h2l1 2 3 2 2 6v4h-2l-1-1v2l-8 1-1 3-5 5-2 4-2 1 5 5 1 6h-2l-3 12-1 2 6 1v2l11 3-1 3 3 1 3 2v5l4-1-2 7h-4l-2-5-3-1-1-5-3-1-1-4-11-3-9-4-2-4-2-1-1-3h-5l-3-3v-2h3l1-4 5-2 2 2-2 4-2 2 5 1 3 2 4 4 2-2-1-7 2-3 1-6h-2l-1 2-2-3v-4h2l-1-4-1-2 4-1-1-9h3l1-9 5 2 1 5h3v-5l-9-3-3 1-10-2-1 2-3-2 2 3-1 3-1 2h-7v-3l3-1v-4l6-2z"/>
    <path d="m393 624 4 1 2 1 14 1 1 4h4l4 5 7 2h10l3 1v2h-9l-9 1-5-1-5 1h5l-1 3-1-2h-2l-1 2h-3l-7 2-9-3h-2l-1 3h-2v-2l-6 1-3-1 1-4 2 1 7-1 2 1v-2l3-1-12-1h-22l-2-2 11-2 4-4v-4z" fill="#8e6458"/>
    <path d="m745 325h6v7l-3 7-7-1-2-3-3 1v2l-10 5h-3l-1 4h-2l-1 3h-3v2l-7 1-3 2h-3v2l-5 2-3 3h-2l-1 4-5 1-5 2-1 2-8 1 1-3h3v-2h3v-2h4l1-5h-7l-6 1-3-2 24-9 21-9 16-8z" fill="#a39187"/>
    <path d="m577 663h3l2 2 5 1-1 7 3 11 40-2h29v1l-7 2-40 1h-53v-3l2-3h5v-2l-6-1 1-3-2-2h5v-2h2l1-5 6-1h3z" fill="#9a8273"/>
    <path d="m331 479h8l18 6 6 3 1 2v8l-3 5-7 1-10-3-5-3-3-4-2-5-4-9z"/>
    <path d="m734 343h3l2 5-2 7-3 5h-3l-2 6h-3l1 3-3 1v5l-2 4h-2l-2 4-4 1-4-4 1-3 2 1v-2h-2l1-3h2l5-2 1-3h-2l-1 2-1-4-5-2 1-6 3-2h3l1-4h3v-2l4-1 1-4z" fill="#86756e"/>
    <path d="m486 485h15l18 3 5 3-2 6-9 3v2h-2v2l-10 6-14 5-3 1h-17l-11-1-4-2-6-2-1-5 3-5 5-4h3v-2l15-6 7-2zm9 2-4 2 3 8-6-2h-6l-2-5-5 1-12 4-11 7-2 6 8 5 7 1h21l17-7 7-5v-2l5-2 5-4-1-3-9-3-5-1z" fill="#8b685b"/>
    <path d="m412 598 9 1h4l1 2 3 1 2-4 6 2 6-1 2 1-1 3-3 3v2l4-1 1-2 4 1 1-2h5l3-1v2h-2v2h8l2-4h7l2 2 7-2 4-1 1 2h-3l3 1-2 8-5 2-10-2-4-1-6-1-1 3-3-1-1-2-14-1-7-1-6-2-6-1-9-3v-3l-4-1z" fill="#94796f"/>
    <path d="m329 474h7l14 3v2l11 2v2l4 2 3 3 1 8-3 8-4 3-12-1-10-4-6-4-7-9-1-5h-2l-1-6 1-2zm2 5-1 2 7 14 5 5 7 3 8 1 5-2 2-4v-8l-3-3-12-5-10-3z" fill="#8c685b"/>
    <path d="m420 363 29 1 18 4v1l-12 1-5-1h-29l-5 1h-37l-8 1-6-4v-2l8 1 3-2h39z" fill="#978882"/>
    <path class="E" d="m326 367 3 3v2l2 1v2h2l1 5h2l1 7-2 2-5 2 3 17-2 7-2 6h-3v5l-5 2-5 8-1-4 2-3 2-6 3-2 1-4 2-1 1-5-3-7-2-7 2-9 4-6h2v-4h-2l-1-7-3-1z"/>
    <path d="m333 471 11 1 5 3h6l2 2 5 1v2l5 1 3 4 1 4 1 5v7l1 4h-2l-1 3-11 3-20-7-9-7-4-6v-2l-6-2 2-1-4-6 2-6zm-4 3-5 2-1 6 1 2h2l1 5 7 9 7 5 9 3 12 1 5-5 2-6-1-8-5-5h-2v-2l-11-2v-2l-14-3z" fill="#9d8575"/>
    <path d="m581 423 3 2v2l4 3v2l3 1h-2l1 3v4h-3l1 2-6 1v4h-2l1 10-3 3 2 5h2l5 5v2h2v5l4 1-2 2-5-1v-2h-2l-1-4-7-6-4-2-1-6h2v-2l-2-1 1-8-3-2 1-3h3v-2l7-2 3-2-1-4 1-2h-2l-2-4v-3z" fill="#bea18d"/>
    <path d="m640 405 1 3h2l1-2 2 1v2h-2v7l-1 1 2 3v3h-3l-1 4-1-4-1 3-4 1h-9v2h-3l-2-5-1-5 3-6 4-2h3v-3l9-1z" fill="#8a6c5e"/>
    <path d="m670 370h2l1 4h-2l-1 3h-2l-3 5-14 7-7 2v2h-2v2l-11 4-5 1-5 5-6 2 3-6 7-4 3-1 1-4h7v-3l7-2v-2l9-3 1-2 5-3h4l1-4 7-1z" fill="#9f8777"/>
    <path d="m249 302 9 5 8 5 23 14v3l-2 5-8-5-3-3-20-10-5-1-3-8z" fill="#9d8b83"/>
    <path d="m309 665 6 1-1 3 6 2 1 12h-13l-3-2v2h-9l-1-5 5-6 2-2h4l-1-3z" fill="#7a675b"/>
    <path d="m455 494 3 1h-2v2l-5 3-4 4-1 6 6 2 4 2 11 1h17l15-5 9-5 3-1v-2h2v-2l5-1-4 4h-2v2l-4 4-11 5-11 4-15 2-9-2h-6l-4-2v2l-9-1-5-5 2-6 4-6 8-5z" fill="#a28a79"/>
    <path class="C" d="m495 487h10l12 3 3 2-1 3-7 5h-2v2l-9 6-15 6h-21l-9-2-6-4 2-6 11-7 12-4 5-1 2 4-12 2-10 4-3 3h-2l-1 5 3 2 17 2h11l16-7 5-3 1-2h2l1-3h2v-2l3-1 1-2-13-3h-6v8l-3 3-11-4v-1l9 1 2 1-3-9z"/>
    <path class="G" d="m621 436 8 6 4 10 1 12h2l3 9 4 1v3l4 9 8 2-1 3-5 1-1-4-4-2-3-3-4-8-2-1v-2l-4-1-3-7v-4h-3l-1-4 4-5-2-4-2-1-1-3-4 2-2-8z"/>
    <path class="L" d="m501 473 9 2 3 4 15 3 5 3 4 1-1 7h-3v-2h-2l-2-3-19-4-7-1-8-2h-11l-1-4 7-1 3-2h7z"/>
    <path d="m636 590 7 1 3 5-3 10 2 1h-2l1 5-2 3-2 1v4h-2l-1 2-2-2v-3l-3-1v-1h-1v-9l2-8v-3h3l-1-3z" fill="#b9a8a2"/>
    <path d="m692 440 3 1-6 7-5 18-4 7h-3l-2 1-1-5v-1h-3l1-4-1-4h2l1-3 4-1 1-7h2l-1-4 7 2v-2h2v-3z" fill="#878082"/>
    <path d="m675 654h2v8l-2 3v9l2 1v3l-7 1-1-2h-5l-1-4-2-1-3-6h2l3-3 7-4h2l1-4z" fill="#85736c"/>
    <path d="m700 382 5 1v2h-2v2l4-1 1-2 5 1v3l3 1-1 7-4 9-3 2-5-6 1-2-2-8v-4l-5-1 1-3z" fill="#86756d"/>
    <path class="H" d="m322 426 3 1-4 6-1 5 1 5h-2l-1 7-3 1-1 5-2 5h-2l1 5-2 2-4-1v-3h2l1-7 2-9 1-1v-5l3-1 1-5 5-8z"/>
    <path d="m739 334 2 4 7 1-5 12-7 13-2-3 2-4 2-11-1-3-11 3-4 1 1-4 10-5h3v-2z" fill="#888385"/>
    <path d="m415 589 6 1 1 3 4-1 11 2v3l14 2v1l-6 1-4-1h-4l-1 3v-3l-5-1-2 3-4-1-3-3-1 3-7-2-4-2 3-1 2-5z" fill="#9b8274"/>
    <path d="m629 682h29v1l-7 2-40 1h-49l2-2 12-1h35z" fill="#9c8a81"/>
    <path class="K" d="m331 479h8l18 6 6 3 1 2v8l-3 5-7 1-10-3-5-3-3-4-2-5-4-9zm6 3-1 6 3 4 2 5 10 5h8l3-6v-6l-8-4-10-4-5 1z"/>
    <path d="m640 385h3v2l-3 2h-4v3l-7 1-1 3-6 4-5 4-3 4-7 1-5-1v-2l8-4h2l2-4 4-2 3-3 4-3h5l2-2h6l1-2z" fill="#bfa28d"/>
    <path d="m273 324 6 3 1 2 5 3 4 2 3 3 14 8 1 3 4 2 5 5v2h-2v-2h-2v2l-4-1-1-4-8-6-5-2-9-6v-2l-4-1-3-3-1-5-4-1z" fill="#a18978"/>
    <path d="m288 328 5 1 16 8 2 2h-6v4h4v2l4 2 1 4-11-7-14-8v-2h-2z" fill="#b5a29a"/>
    <path class="D" d="m326 367 3 3v2l2 1v2h2l1 2v6l-3 3h-4l-1 5-1 3 3 9v10l-3-3-2-6-2-7 2-9 4-6h2v-4h-2l-1-7-3-1z"/>
    <path d="m290 656h3v3l5 2 3 3 4 2 1 4-2 2h-4l-2 5-3 1-4-9-3-11h2z" fill="#87756d"/>
    <path d="m684 390 3 2v2l7 2 3 5 1 3h-13l-1-3-4-1v-2h-4l-1-5 3-2h5l1 2z" fill="#9a8275"/>
    <path d="m745 325h6v7l-3 7-7-1-2-3-5 1v-3l5-5z" fill="#999499"/>
    <path d="m376 364h12l12 2 5 2v1l-15 1h-11l-8 1-6-4v-2l8 1z" fill="#a89892"/>
    <path d="m673 409 7 1 2 4 3 1v4l3 7h-3l-5-1-5-5v-2l-4-1-2-2 1-2-2-1 4-1z" fill="#9a8578"/>
    <path d="m677 560 3 1v28l-2-2v5l-2 1-1-9-2-1 1-3h-2v-8l3-9z" fill="#847d7e"/>
    <path d="m486 483 23 1 15 4 3 1 1 3-4 6-6 1 4-3 1-5-4-2-18-3h-15l-12 3-6 2-10 3 3-3 10-4z" fill="#94796e"/>
    <path d="m316 424 2 1-1 5-3 11-2 1v6h-2l-1 9-2 7h-2l-2 5-2 10-2 5h-2l2-14 4-8h2v-8l3-3 2-11 4-10z" fill="#998173"/>
    <path class="D" d="m577 663h3l2 2 5 1-1 7 2 9h-5l1-2-2-2 1-3h-6l-5-7z"/>
    <path class="J" d="m370 489 2 1v11l1 4h-2l-1 3-11 3-17-6v-1l8 1 12 1 4-4 3-12z"/>
    <path d="m478 487h17l-3 2 3 9-13-3-2-5-13 5-2-1 4-3 5-1 1-2z" fill="#876559"/>
    <path d="m412 598 9 1h4l1 2 3 1 2-4 3 1 2 1 1 5-3 3-11-2-9-3v-3l-4-1z" fill="#937e6e"/>
    <path class="C" d="m331 477h8l16 5 8 5-2 1-12-5-10-3h-8l4 9 3 6 1 3 10 4-4 1-8-5-3-3-7-14 1-3z"/>
    <path d="m330 472 6 1v1l-12 2v8h2l4 8 6 7 8 4v1l-7-1-9-8-2-6-6-2 2-1-4-6 2-6z" fill="#967b70"/>
    <path d="m280 559h1l1 7 2-1h1l4-1-2 4 4-1-1-3 1-2h2l1 6-1 2 3-1v2l2 1-3 3v4l-8 1 5-4-6-3v-2h-4l-2 3z" fill="#947a6f"/>
    <path d="m670 370h2l1 4h-2l-1 3-9 2-1 3-10 3-5 3h-2v2h-3v2l-6 1 2-1v-3l7-2v-2l9-3 1-2 5-3h4l1-4 7-1z" fill="#a69287"/>
    <path class="C" d="m477 490h3l2 4-12 2-10 4-3 3h-2l-1 5 3 2 16 2 1 2h-9l-9-2-6-4 2-6 11-7 12-4z"/>
    <path d="m431 364h18l18 4v1l-12 1-5-1h-13l-10-1 2-1v-2z" fill="#999499"/>
    <path d="m252 315 6 1v3l5 1 2 3-2 1 1 5 1 4-4 5-4-10-5-11z" fill="#86756c"/>
    <path class="K" d="m501 488 11 2 4 2-1 3h-3v2l-3 3h-2l-1 3-16 8-5 2h-9v-2h7l10-4h3v-2l8-5 3-5 2-1v-2l-10-2z"/>
    <path d="m676 436 7 1 3 1 6-2 1 4-4 2v3h-2v2l-3 1v-2h-2l-3-3h-2v-2l-5-1 1-3z" fill="#87766f"/>
    <path class="E" d="m610 584 5 2 5 1-3 2 1 2h-2l1 3-3 3h-6v-2l-5-1v-3l6-5z"/>
    <path class="B" d="m486 485h15l18 3 5 3-2 6-9 3v2l-3-1 5-4 4-3v-2l-9-3-5-1-18-1-1 2-2-1v-2zm33 86h14l4 1-2 5h-2v2l-4-1v-2l-2 2h-3l-1 2h-3l-2-4-1-3h2z"/>
    <path d="m307 426h1l1 12 2-1-2 14-4 6-3 1-2-1 1-5 5-14z" fill="#826f67"/>
    <path d="m455 494 3 1h-2v2l-5 3-4 4-1 6 6 2 4 3h-10l-5-2v-8l3-5 8-5z" fill="#957a6f"/>
    <path d="m512 364h31l13 5v1l-10-1h-8l-1-3-7 1-18-2z" fill="#968f91"/>
    <path d="m257 309 5 1 16 9 2 4-5 1-8-5-9-6-2-1z" fill="#b3a29d"/>
    <path d="m340 476 10 1v2l11 2v2l4 2 3 3 1 8-2 6h-2v-12l-4-4-9-4-9-3v-2z" fill="#8d695c"/>
    <path d="m587 586 5 1-2 1v2h3l1-3 1 2 3-1 2 4-3 1-2 4-4-1-1-3-9 1v-4l3-3z" fill="#a69286"/>
    <path d="m301 456 2 1 3-1-1 6-3 3-4 13-4-1 1-8 5-12z" fill="#86746c"/>
    <path d="m667 440 6 3v2h2v2l4-1 2 1v2h-2v7l-2 1-1-7-1 4-3-1-1-3-4-1 1-4-4-1v-3z" fill="#9a8275"/>
    <path d="m281 616h5l1 6-1 10-2 5h-2l-2 2z" fill="#79665d"/>
    <path d="m672 456h2l-2 6 1 2-2 5-2-2-3 1-1 9-2 5-5 1-1 2v-3l4-4 1-11h2v-2l4-3h2v-3h2z" fill="#9b8477"/>
    <path d="m515 499 3 1-4 3h-2v2l-4 4-11 5-11 4h-12l-1-2 11-1 15-5 9-5 3-1v-2h2v-2z" fill="#957a6f"/>
    <path class="E" d="m352 538v3l2 1v11l2 9-4-2-3-7-2-3h2l-1-7h2l1-4z"/>
    <path d="m326 413 1 4 4-1-2 5h-3v5l-5 2-5 8-1-4 2-3 2-6 3-2 1-4 2-1z" fill="#a28a79"/>
    <path d="m675 675 4 1 7 6v1h-22l2-3 6-1 4-2z" fill="#888285"/>
    <path class="D" d="m608 410h4l-1 4h-3l-2 11v4l-1 4h-2l-3-4 1-7 2-4h2l-1-3 4-2z"/>
    <path d="m280 321 10 6-3 7-8-5-3-3v-2l4-1z" fill="#a29086"/>
    <path d="m525 487 5 1 1 3h2v4h-2v2l-3 2-9 3-6 4-5 2 2-3h2v-2l6-4 9-4 1-7z" fill="#a48c7c"/>
    <path d="m495 487h10l7 2-3 1-12-1v8l-3 3-11-4v-1l9 1 2 1-3-9z" fill="#5e4942"/>
    <path class="M" d="m489 481h13l5 1 11 3 7 1v2h3l1 5-2 3-2-1 2-4v-2l-11-2-7-2-22-2z"/>
    <path d="m376 364h12l-4 1v2l-4 2-5 2-6-1-4-3v-2l8 1z" fill="#8a8283"/>
    <path d="m397 593 5 2 1 3 5 1 3 4h-5l-3 1-9-3-1-2 7 1-4-4z" fill="#8c6d5f"/>
    <path d="m320 573 3 1v3l6 1 1 2 5 2-1 3 1 2-4-1-9-6-3-3z" fill="#94796e"/>
    <path d="m628 392 9 1-5 5-6 2-5 5-6 2 3-6 7-4 3-1z" fill="#a38c7c"/>
    <path class="G" d="m489 582h5l-2 2 1 6 3 2-1 2-5 2-1 2-4-1 4-7h-2l-1-6z"/>
    <path d="m486 483h8l4 2-12 1-12 3-6 2-10 3 3-3 10-4z" fill="#937e6e"/>
    <path d="m310 448 4 4-1 7-1 2h-2l1 5-2 2-4-1v-3h2l1-7z" fill="#a58f81"/>
    <path class="D" d="m607 651h14l-1 8-4-1-1-1-10-3v-2z"/>
    <path d="m697 412h6l2 9-2 2-6-2-2-3 1-4z" fill="#85756e"/>
    <path class="F" d="m576 674h8l-1 4 2 2-1 1 4 2h-9l-4-2z"/>
    <path d="m296 342 6 2v2l5 1 8 7 1 3h-2v-2h-2v2l-4-1-1-4-10-7z" fill="#9f8777"/>
    <path d="m629 682h29v1l-7 2h-26l1-2z" fill="#969298"/>
    <path d="m284 592 3 2 1 9-2 7-3 1v-16z" fill="#776357"/>
    <path d="m745 325h6v7h-12l-1-2 3-3z" fill="#9c9498"/>
    <path class="G" d="m549 562 5 2 1 1v5l-3 1v7l-3 1-1-3v-8l1-3z"/>
    <path d="m333 471 11 1 5 3h6l1 4-12-2-8-2v-2h-3z" fill="#9d8575"/>
    <path d="m330 567 5 1v3l6 7 3 1v3l-5-2-7-5v-3h-2z" fill="#9b8274"/>
    <path d="m281 570 5 1v2l6 1 1 3-3 2h-3v-2h-2l-2-5v14h-1l-1-7z" fill="#868083"/>
    <path d="m668 497 4 2v9l1 3-2 2-3 1-1-12z" fill="#a7a0a5"/>
    <path d="m705 345 2 1-2 3-7 2-4 3-9 3-2-3z" fill="#8c7a71"/>
    <path d="m440 364h9l18 4v1l-12 1-9-3v-1l-6-1z" fill="#8e8687"/>
    <path d="m415 364 2 1v2l-3 2h-9l-9-3v-1z" fill="#857f80"/>
    <path class="D" d="m370 531h6l4 3 6 2-1 2-8-2-4-2-8 1-2 1v-3z"/>
    <path d="m281 552h2l2 2 1 13-2 2-1-3-2 2z" fill="#878183"/>
    <path d="m670 478 3 2v2l2 1-1 2-1 19h-1l-1-13-2-1v-8z" fill="#807776"/>
    <path d="m450 678h9l10 2v2h-16l-6-2z" fill="#8b786c"/>
    <path class="D" d="m471 593 3 3v1l3 1-3 2-15 1-6-1v-1l14-1v-3z"/>
    <path class="C" d="m394 677 5 1 2 3-1 1h-14l-1-2h3l1-2z"/>
    <path d="m690 436h3l-1 5-3 1v3l-3 1-3-1-1-5 4-1z" fill="#87766f"/>
    <path d="m311 339 6 1 13 8-1 2-5-2-13-7z" fill="#9c908e"/>
    <path d="m357 591 3 2-2 3 3 1v1l-10 1 3-1v-2h-8v-2l-2-1 7 1 6-1z" fill="#8b6c5e"/>
    <path class="I" d="m669 369h5l-2 3v-2h-2v2l-7 2-1 3-8 2 1-4 3-2h3v-2l5-1 3 1z"/>
    <path d="m604 503 4 1v2h2l-1 4-7 1-1-6z" fill="#baa8a2"/>
    <path d="m492 658h3l4 4v3l-1 2h-2l1 3h-5l-2 1 1-3h2v-3h2z" fill="#8c6d5f"/>
    <path class="C" d="m363 488 3 2v7l-2 6-3 2h-8l-4-2h8l5-2 1-3z"/>
    <path d="m302 463 1 3-1 11-2 4-1 3h-2l2-14z" fill="#968071"/>
    <path d="m326 489 3 1 6 8 9 5v1l-7-1-9-8z" fill="#977d70"/>
    <path d="m459 515h8l7 2 4 2-7 1-9-2z" fill="#9a8173"/>
    <path d="m472 488 3 1-1 2-7 2-2 2-7 2-5 3-2-1 2-2h3v-2l15-6z" fill="#896b5d"/>
    <path d="m284 638 4 5v5l-4 1-3-7 1-3z" fill="#796659"/>
    <path d="m297 558 4 1v3h-4l-1 5 2 1-5 2-1-6 4-2z" fill="#8f7a6e"/>
    <path class="B" d="m654 446 7 1 4 3-1 3 1 3-3-1v-2h-3v-2h-2v-2z"/>
    <path d="m598 407h2l-1 4-6 3h-3l-4 1-2 2-1-3 6-1v-2z" fill="#bea28d"/>
    <path d="m303 447 4 1-1 8-4 2-2-1 1-5z" fill="#7a685c"/>
    <path class="L" d="m649 383v3l-6 2v2h-3v2l-6 1 2-1v-3l7-2v-2z"/>
    <path d="m725 377h2l-1 6-4 8-2 1 1-7z" fill="#a79c9b"/>
    <path d="m688 362h5l-1 4-5 1-5 2-1 2-5 1 5-5 6-4z" fill="#a18978"/>
    <path d="m484 490 7 2 4 5h-3l-9-3z" fill="#988372"/>
    <path d="m565 678 3 1-4 6-6 1v-3l2-3h5z" fill="#988173"/>
    <path d="m483 487h12l-3 2 2 6-4-3-6-2z" fill="#89695b"/>
    <path class="F" d="m675 449 2 1 1 5-2 3-4-2v3h-3v-6l6 1z"/>
    <path d="m496 488 3 1h-2v8l-3 3-11-4v-1l9 1 3 2v-9z" fill="#492e2b"/>
    <path class="B" d="m502 587h6v2l4 1-2 2h-7l-2-1z"/>
    <path d="m290 656h3v3h2v7l-2-1-1-3h-3l-1-4h2z" fill="#796659"/>
    <path d="m368 496 2 2-2 7-4 3h-8l-3-2h9l4-4z" fill="#947f6f"/>
    <path d="m311 476 5 1v2h2l1-3v5l1 2-6 1 1-4-3-1z" fill="#ac9380"/>
    <path class="E" d="m588 446 4 2h4l-2 6h-4l-1-5h-2z"/>
    <path d="m640 416 4 1 1 6h-3l-1 4-1-1v-5h-2v-2h2z" fill="#836a5c"/>
    <path d="m292 387 5 2-1 7h-4l-1-4z" fill="#816a5d"/>
    <path class="I" d="m640 385h3v2l-3 2h-4v3l-7 1v-2h2l1-3h6l1-2z"/>
    <path class="N" d="m709 352 3 2-2 2h-3v2l-10 3 1-3 5-1v-2z"/>
    <path class="L" d="m287 334h2l3 3 14 8 1 2-5-1v-2l-7-2-8-6z"/>
    <path d="m515 499 3 1-4 3h-2v2l-4 4-8 3 1-3 8-5h2v-2h2v-2z" fill="#967d70"/>
    <path d="m260 328 4 1 1 4-4 5-3-6z" fill="#7c695f"/>
    <path d="m566 405h6l1 4-3-1v2h-2v2l-3-1v-5z" fill="#baa9a3"/>
    <path class="M" d="m642 391h2v2h-2v2l-7 3-3-1 3-3h2v-2z"/>
    <path d="m722 337 3 1-3 3h-3v2l-9 1 4-3z" fill="#867e7e"/>
    <path class="F" d="m661 476v3l-2 3h-2v5l-5 1-1-2h2v-2l2-2 2-1 1-2z"/>
    <path class="M" d="m316 424 2 1-1 5-3 11-3-2 3-9z"/>
    <path d="m630 375h6l-1 5h-6v-2l-2-1z" fill="#baafad"/>
    <path class="B" d="m670 663 2 3v8l-3-1-3-5z"/>
    <path d="m364 502h2l-1 3-3 2-12-1-3-2h14z" fill="#7a6659"/>
    <path class="C" d="m392 558 4 1-1 4h-6l-3-3z"/>
    <path d="m331 494 5 2 5 4 8 3v1l-8-1-8-6z" fill="#8a685b"/>
    <path d="m340 476 10 1v2l4 1v2l-8-2-3-1v-2z" fill="#8c6b5d"/>
    <path d="m544 366 8 1 4 3-15-1z" fill="#a1999c"/>
    <path d="m305 681 4 1-1 3h-10l-1-3 8 1z" fill="#907c6c"/>
    <path d="m280 559h1l1 7 2-1 1 6h-3l-2 3z" fill="#6d5953"/>
    <path d="m281 534h1l1 15 2 1-1 5-1-3h-2z" fill="#735e57"/>
    <path d="m417 364h2l2 5-5 1h-11v-1l9-1z" fill="#9d979b"/>
    <path class="N" d="m316 357h2l3 5 3 4v2l-4-1-4-7z"/>
    <path d="m666 680h6v2l6-1 2 2h-16z" fill="#97949a"/>
    <path d="m329 486h2l3 6-1 3-5-5z" fill="#8e6559"/>
    <path class="N" d="m273 324 6 3 5 8h-3l-3-3-1-5-4-1z"/>
    <path class="B" d="m284 616h2l1 6v5l-2-3h-2v-7z"/>
    <path d="m543 582 3 1-2 4h-3l-1 3-3-2h2l1-4z" fill="#968071"/>
    <path class="D" d="m440 506 2 4v2l3 2-1 3-6-4z"/>
    <path d="m424 599 4 3 1 5-6-1-2-1 1-2h2z" fill="#95796f"/>
    <path class="F" d="m553 569 2 1-3 1v7l-3 1-1-3 1-6z"/>
    <path d="m460 495 3 1-11 7-2-1 4-4z" fill="#8b6458"/>
    <path d="m656 493 1 2h-2v2l-4 1-5-1 1-3z" fill="#b8a7a2"/>
    <path d="m526 490 2 2-4 6-6 1 4-3 2-5z" fill="#947f6f"/>
    <path d="m345 474 10 1 1 4-9-2-2-1z" fill="#a58c7a"/>
    <path d="m370 422 5 5h-2l-1 3-3-2-1-5z" fill="#bda393"/>
    <path d="m328 406 3 3v6h-2v2h-2z" fill="#b09582"/>
    <path d="m492 669h3l-2 4-3 3h-3l2-4z" fill="#82695c"/>
    <path class="B" d="m682 440h6v5l-2 1-3-1zm-47-29 5 2-4 1-1 4h-5l-1-2h3l2-4z"/>
    <path d="m607 388 5 1-3 3-1 5h-2z" fill="#cfbcad"/>
    <path d="m732 365h2l-1 5-4 5v-2l-2-1z" fill="#9f9799"/>
</svg>
